<?xml version="1.0" standalone="no"?>
<!DOCTYPE svg PUBLIC "-//W3C//DTD SVG 20010904//EN"
 "http://www.w3.org/TR/2001/REC-SVG-20010904/DTD/svg10.dtd">
<svg version="1.0" xmlns="http://www.w3.org/2000/svg" width="456" height="456" viewBox="0 0 456 456" preserveAspectRatio="xMidYMid meet">
	<g transform="translate(0.000000,456.000000) scale(0.100000,-0.100000)" fill="#ffffff" stroke="none">
		<path d="M1199 4024 c-37 -44 -13 -242 41 -341 33 -60 33 -73 -3 -66 -34 7
-38 -13 -26 -107 10 -84 41 -177 83 -250 16 -28 26 -60 26 -86 0 -144 53 -253
151 -312 20 -12 49 -40 64 -61 26 -39 34 -77 48 -250 2 -19 -4 -26 -28 -33
-93 -27 -162 -53 -176 -64 -8 -8 -20 -14 -26 -14 -18 0 -92 -76 -103 -105 -7
-19 -7 -39 2 -67 9 -32 21 -45 60 -67 26 -14 48 -31 48 -37 0 -11 -32 -44 -42
-44 -6 0 -28 -19 -139 -115 -31 -27 -78 -67 -102 -88 l-46 -37 -15 22 c-9 12
-16 30 -16 40 0 10 -10 28 -21 39 -20 20 -28 21 -113 15 -102 -8 -262 -40
-282 -57 -22 -18 49 -121 169 -240 37 -37 76 -70 86 -74 10 -3 41 6 70 21 59
29 74 24 85 -27 7 -37 75 -109 103 -109 11 0 38 -16 61 -35 91 -79 169 -84
243 -17 l27 24 48 -20 c27 -11 57 -23 67 -26 28 -9 21 -34 -47 -171 -57 -116
-89 -205 -103 -288 -4 -19 3 -40 20 -66 24 -36 30 -39 114 -55 48 -9 133 -20
188 -24 l100 -7 3 -60 c3 -75 9 -105 23 -105 6 0 23 -9 39 -20 41 -29 447
-233 508 -255 52 -19 53 -19 130 2 86 24 273 89 342 120 25 11 64 28 88 38
l42 18 0 147 0 147 -82 18 c-46 10 -92 25 -103 32 -18 12 -15 13 25 13 122 1
327 14 343 22 16 8 16 11 2 31 -21 30 -19 37 10 37 14 0 29 8 35 21 21 38 -22
118 -140 259 -36 43 -57 77 -52 82 5 5 54 24 109 43 109 37 200 76 223 97 42
37 110 217 158 418 6 25 14 82 18 126 6 69 4 85 -14 120 -24 47 -116 135 -175
167 -184 101 -231 113 -419 104 -137 -7 -144 -4 -112 41 12 17 25 22 62 22 62
0 100 24 146 95 87 130 136 250 166 405 29 150 24 328 -14 500 -41 187 -74
260 -116 260 -20 0 -30 27 -30 83 0 21 -7 53 -14 72 -22 51 -49 46 -112 -19
l-51 -55 -69 52 c-88 66 -156 102 -177 94 -12 -5 -17 -18 -17 -47 l0 -42 -32
7 c-18 4 -39 12 -45 17 -28 22 -156 79 -210 93 -62 16 -210 20 -232 6 -12 -7
-10 -14 8 -37 12 -15 19 -29 17 -31 -3 -3 -73 -4 -158 -4 -138 1 -283 -10
-330 -25 -25 -8 -22 -29 7 -61 97 -108 115 -129 115 -135 0 -11 -87 -21 -121
-14 -43 8 -249 180 -342 285 -30 35 -48 39 -68 15z m1125 -69 c32 -9 70 -24
85 -34 14 -10 31 -20 38 -22 42 -14 206 -182 242 -248 11 -21 6 -19 -30 14
-111 102 -110 101 -232 165 -32 17 -64 29 -70 27 -15 -5 -142 55 -168 79 -11
9 -19 21 -19 26 0 13 91 9 154 -7z m-999 -100 c22 -19 47 -41 55 -49 14 -13
180 -146 228 -183 13 -10 29 -22 35 -28 7 -5 33 -26 60 -45 26 -19 64 -50 85
-67 20 -18 40 -33 44 -33 4 0 42 -32 85 -70 158 -145 203 -244 203 -450 0 -89
-5 -124 -26 -192 -47 -151 -106 -237 -181 -262 -86 -29 -174 -16 -153 24 5 10
10 50 10 89 0 63 -3 74 -28 102 -28 31 -28 31 -60 15 -32 -16 -32 -16 -32 7 0
33 41 68 87 73 54 7 104 -21 120 -66 15 -42 7 -118 -14 -142 -15 -17 -14 -18
14 -18 35 0 67 33 99 102 36 76 47 149 39 266 -11 168 -63 265 -202 379 -37
30 -86 70 -108 88 -22 19 -68 55 -102 82 -33 26 -98 81 -142 122 -45 40 -78
65 -75 55 4 -11 12 -25 17 -32 12 -16 5 -24 -16 -16 -42 16 -109 157 -115 243
-4 59 -3 62 14 53 11 -6 37 -27 59 -47z m1365 39 c96 -64 189 -202 214 -316 9
-41 -10 -42 -28 -3 -30 63 -95 153 -129 179 -41 32 -43 32 -51 4 l-6 -23 -20
25 c-20 27 -27 64 -21 118 4 37 7 38 41 16z m-487 -22 c99 -29 187 -67 187
-83 0 -12 -6 -11 -105 14 -33 8 -79 18 -103 20 -39 5 -44 3 -52 -19 -13 -34
-68 -33 -108 1 -27 22 -39 25 -111 25 l-82 0 28 -37 c15 -21 30 -40 33 -43 3
-3 13 -17 23 -32 20 -32 10 -35 -39 -12 -43 21 -181 172 -162 178 36 12 66 14
233 12 152 -2 192 -6 258 -24z m779 -98 c7 -55 6 -87 -1 -107 -16 -40 -27 -26
-34 40 -4 35 -12 62 -22 69 -20 15 -19 20 6 61 29 46 39 33 51 -63z m-983
-157 c41 -13 77 -29 79 -37 3 -9 -3 -11 -24 -6 -72 16 -155 26 -224 26 -55 0
-82 5 -100 17 l-24 17 24 8 c44 13 192 0 269 -25z m1094 -30 c28 -69 18 -88
-25 -45 -15 15 -23 18 -26 9 -2 -7 -14 -23 -26 -36 -141 -155 -180 -195 -184
-191 -2 3 2 11 9 19 8 7 23 26 34 42 11 15 43 56 70 91 28 35 65 84 83 109 18
25 36 45 40 45 4 0 15 -19 25 -43z m-1235 -34 c6 -19 -33 -16 -49 3 -11 14 -9
15 16 12 16 -1 30 -9 33 -15z m-533 -37 c41 -17 48 -40 10 -30 -14 3 -25 2
-25 -2 0 -16 28 -139 36 -158 15 -38 -14 -6 -35 39 -21 44 -41 165 -27 165 4
0 22 -7 41 -14z m1784 -78 c37 -59 53 -244 32 -353 -9 -45 -8 -46 -31 70 -7
33 -16 68 -21 78 -11 20 -35 23 -42 5 -2 -7 -34 -49 -69 -93 -36 -44 -84 -109
-108 -144 l-43 -63 12 -62 c7 -33 18 -93 26 -132 13 -73 29 -114 44 -114 5 0
34 26 65 58 35 35 56 51 56 41 0 -9 -7 -22 -15 -29 -8 -7 -15 -19 -15 -26 0
-8 -18 -34 -40 -58 -46 -50 -78 -60 -160 -50 -49 5 -59 10 -79 39 -18 26 -20
37 -11 52 5 10 16 36 24 58 7 22 19 40 27 40 19 0 36 52 22 66 -18 18 -43 3
-43 -25 0 -18 -7 -26 -27 -31 -15 -3 -31 -12 -35 -18 -10 -17 -204 -11 -298 9
-135 28 -123 17 -121 112 2 71 0 86 -16 98 -16 12 -2 13 104 14 67 0 146 5
175 11 148 30 285 136 459 357 49 61 95 112 102 112 7 0 18 -10 26 -22z m-451
-285 c-15 -15 -31 -24 -34 -20 -10 10 26 47 45 47 11 0 8 -7 -11 -27z m-1237
-20 c36 -21 37 -33 3 -33 -24 0 -26 -3 -21 -27 3 -16 9 -37 13 -48 6 -18 5
-18 -9 -5 -16 15 -36 130 -22 130 4 0 20 -8 36 -17z m1639 -112 c0 -143 -5
-151 -77 -127 -25 9 -50 16 -55 16 -4 0 -8 -28 -9 -62 -1 -57 -2 -60 -10 -28
-19 77 -15 125 14 161 35 44 50 65 88 117 17 23 35 42 40 42 5 0 9 -53 9 -119z
m-780 -307 c25 -7 96 -21 158 -29 62 -8 122 -21 134 -29 23 -17 62 -80 71
-118 7 -26 30 -38 75 -38 62 0 -25 -128 -118 -173 -40 -20 -61 -22 -185 -21
-109 1 -158 6 -222 22 -82 22 -182 66 -195 86 -4 6 10 29 31 51 47 50 101 133
101 156 0 10 4 20 9 23 4 3 14 26 21 51 12 44 14 46 44 40 17 -4 51 -13 76
-21z m-656 -250 c9 -3 16 -14 16 -24 0 -9 20 -35 45 -58 55 -50 57 -73 10 -95
-22 -11 -35 -24 -35 -36 0 -11 -4 -23 -10 -26 -5 -3 -10 3 -10 14 0 17 -6 21
-36 21 -35 0 -64 -18 -64 -39 0 -6 -7 -11 -15 -11 -11 0 -14 7 -9 24 7 31 -14
45 -32 22 -7 -10 -10 -25 -7 -33 5 -13 0 -15 -33 -9 -55 10 -114 51 -114 79 0
61 117 139 255 170 11 3 21 5 22 6 1 0 8 -2 17 -5z m1604 -114 c17 -11 32 -22
32 -24 0 -9 -76 16 -90 30 -12 12 -12 14 5 14 11 0 35 -9 53 -20z m-1298 -39
c0 -12 -21 -27 -47 -34 -27 -6 -30 5 -7 27 16 17 54 22 54 7z m1380 -11 c0 -5
-4 -10 -10 -10 -5 0 -10 5 -10 10 0 6 5 10 10 10 6 0 10 -4 10 -10z m-551 -26
c12 -15 21 -35 21 -45 0 -17 -5 -18 -42 -13 -54 9 -62 21 -35 55 27 35 31 35
56 3z m-514 -95 c39 -6 92 -13 120 -17 l50 -7 17 -65 c10 -35 14 -67 10 -71
-11 -9 -110 -29 -148 -29 -27 0 -36 -5 -44 -24 -5 -13 -17 -30 -27 -37 -10 -8
-34 -33 -53 -56 -18 -24 -41 -43 -50 -43 -9 0 -42 14 -73 31 l-57 30 5 50 c4
39 2 49 -10 49 -8 0 -15 -8 -15 -19 0 -10 -6 -24 -14 -30 -13 -11 -13 -7 -5
26 7 25 26 53 57 81 26 23 49 42 52 42 3 0 16 25 30 55 24 53 27 55 55 50 17
-3 62 -11 100 -16z m372 -84 c59 -135 62 -143 56 -148 -3 -3 -23 7 -44 23 -21
15 -54 31 -73 34 -19 4 -39 13 -45 20 -21 25 -49 123 -40 137 5 8 9 11 9 8 0
-4 15 -3 33 1 60 15 67 10 104 -75z m447 34 c25 -30 60 -88 54 -90 -26 -9 -91
-5 -120 7 -29 13 -41 14 -52 5 -11 -9 -15 -8 -20 4 -3 8 -1 15 3 15 5 0 7 9 4
19 -7 28 38 71 76 71 20 0 37 -9 55 -31z m-1644 -18 c0 -6 -4 -13 -10 -16 -6
-4 -4 -17 5 -36 13 -25 22 -29 58 -30 23 -1 47 -2 52 -4 6 -1 14 -3 19 -3 5
-1 0 -12 -11 -24 -31 -35 -42 -61 -36 -89 6 -32 -13 -48 -22 -18 -4 13 -12 18
-22 15 -8 -3 -18 -6 -23 -6 -14 0 -23 -60 -11 -74 6 -7 9 -15 6 -18 -3 -2 6
-11 20 -18 27 -15 30 -26 16 -63 -7 -17 -20 -26 -44 -31 -54 -10 -80 -46 -85
-116 -3 -35 -9 -60 -16 -60 -6 0 -22 21 -35 46 -25 47 -66 73 -84 55 -15 -15
12 -82 47 -113 l30 -28 -26 0 c-21 0 -33 9 -52 43 -13 23 -28 59 -31 80 -5 25
-12 37 -20 33 -8 -3 -16 2 -19 10 -7 18 -35 18 -42 0 -3 -8 -1 -24 6 -35 7
-15 8 -21 0 -21 -6 0 -18 16 -26 35 -32 76 -7 195 50 239 18 14 51 42 73 63
171 163 233 212 233 184z m440 -9 c0 -5 -10 -14 -22 -20 -27 -14 -61 -35 -68
-42 -32 -32 -110 -89 -102 -74 26 46 67 80 135 111 20 10 37 21 37 25 0 5 5 8
10 8 6 0 10 -4 10 -8z m1344 -24 c20 -29 20 -52 0 -73 -21 -21 -30 -10 -37 42
-7 58 9 71 37 31z m-2254 -137 c15 -29 12 -51 -7 -57 -42 -14 -66 -30 -79 -56
-8 -15 -12 -28 -8 -28 4 0 1 -6 -5 -13 -7 -9 -8 -24 -2 -45 5 -17 7 -33 3 -36
-3 -3 2 -6 11 -6 10 0 17 -4 17 -10 0 -24 -64 -3 -66 22 -2 33 -18 68 -30 69
-8 1 -18 3 -24 4 -5 1 -17 3 -25 4 -17 1 -95 96 -95 116 0 8 31 18 88 29 175
32 208 33 222 7z m2258 -24 c20 -16 15 -78 -10 -104 -26 -28 -48 -30 -48 -4 0
24 -20 32 -40 16 -8 -8 -27 -11 -42 -8 -22 4 -28 11 -28 30 0 27 35 62 62 63
9 0 19 4 22 8 7 12 68 11 84 -1z m-1578 -7 c0 -5 -6 -13 -12 -17 -13 -8 -18
-15 -56 -75 -27 -43 -35 -33 -11 15 31 62 79 109 79 77z m85 -125 c-11 -49
-15 -92 -10 -120 8 -55 -4 -63 -61 -39 -44 18 -54 29 -54 60 0 40 53 139 103
192 l32 33 3 -25 c2 -15 -4 -60 -13 -101z m971 60 c4 -14 3 -29 0 -33 -9 -8
-26 18 -26 41 0 26 19 20 26 -8z m-290 -27 c86 -91 140 -178 168 -275 11 -34
-14 -100 -51 -138 -46 -47 -63 -46 -63 5 0 59 -15 82 -81 123 l-60 38 21 35
c21 33 22 40 11 129 -6 51 -11 101 -11 109 0 27 24 18 66 -26z m215 -8 c29
-21 67 -80 52 -80 -5 0 -2 -4 6 -9 8 -5 16 -32 19 -66 4 -47 1 -59 -16 -75
-20 -19 -20 -18 -24 45 -5 74 -19 95 -89 131 -55 27 -79 49 -79 71 0 23 91 10
131 -17z m-1615 -12 c-3 -17 -8 -33 -10 -36 -9 -9 -46 20 -46 37 0 24 9 31 38
31 22 0 24 -3 18 -32z m2039 -66 c-6 -7 -45 19 -45 29 0 5 11 2 24 -8 13 -10
23 -19 21 -21z m-753 -16 c-3 -34 -9 -45 -23 -49 -21 -6 -21 4 3 66 15 40 24
33 20 -17z m468 -47 c9 -52 9 -74 1 -82 -8 -8 -11 1 -11 34 0 24 -3 61 -6 82
-4 20 -4 37 -1 37 3 0 11 -32 17 -71z m-153 6 c9 -25 -4 -29 -17 -6 -7 15 -7
21 0 21 6 0 13 -7 17 -15z m-947 -105 c107 -34 211 -68 230 -75 19 -8 76 -26
125 -40 50 -15 113 -35 140 -45 28 -10 60 -21 72 -25 35 -10 45 -29 32 -59 -7
-14 -15 -26 -19 -26 -4 0 -33 12 -64 26 -40 18 -65 24 -85 19 -56 -12 -154 32
-132 59 7 8 -6 12 -42 13 -30 1 -71 13 -101 27 -54 27 -251 100 -326 120 -24
7 -48 20 -54 28 -12 19 -1 49 16 44 7 -2 101 -32 208 -66z m1173 -122 c32 -23
197 -185 230 -226 9 -12 17 -27 17 -32 0 -21 -28 -8 -56 26 -16 19 -44 42 -62
49 -19 8 -36 25 -43 42 -5 15 -39 56 -75 91 -35 34 -64 65 -64 67 0 11 23 3
53 -17z m-1173 -69 c0 -5 -9 -27 -19 -47 -51 -96 -72 -146 -82 -192 -6 -27
-15 -53 -21 -56 -16 -10 -29 18 -22 51 7 33 71 170 104 223 19 31 40 43 40 21z
m5 -78 c-6 -20 -25 -30 -25 -13 1 26 14 52 22 44 6 -6 7 -19 3 -31z m731 25
c27 -10 52 -12 76 -7 20 5 42 5 48 1 15 -9 4 -30 -15 -30 -7 0 -23 -12 -35
-27 -22 -28 -24 -74 -6 -115 7 -16 2 -18 -38 -18 -84 0 -136 43 -136 113 0 47
25 97 48 97 9 0 35 -7 58 -14z m532 -173 c157 -157 159 -161 73 -162 -27 -1
-31 2 -22 12 8 11 5 16 -15 25 -14 7 -30 12 -35 12 -6 0 -34 11 -63 25 -57 27
-62 34 -91 139 l-16 58 -47 -7 c-45 -6 -46 -6 -25 9 25 19 62 34 82 35 7 1 79
-65 159 -146z m-370 85 c-5 -15 -35 -34 -43 -27 -3 4 -3 14 1 23 7 18 48 23
42 4z m-330 -70 c2 -10 -16 -35 -45 -62 -45 -43 -73 -57 -73 -37 0 16 30 94
42 108 16 20 72 13 76 -9z m894 -35 c21 -19 24 -49 4 -56 -16 -6 -76 33 -76
50 0 10 16 18 44 22 5 0 18 -6 28 -16z m-792 -60 c18 -15 46 -34 64 -42 33
-17 44 -51 45 -153 1 -58 2 -58 -133 -19 -87 26 -141 51 -110 51 18 0 54 36
54 53 0 28 -39 31 -68 5 -15 -12 -29 -24 -31 -25 -2 -2 2 -9 9 -18 10 -12 10
-15 -3 -15 -26 0 -67 22 -67 36 0 7 11 21 25 31 14 10 56 42 93 70 37 29 72
53 79 53 6 0 26 -12 43 -27z m-806 -40 c12 -12 116 -32 171 -32 28 -1 60 -4
72 -7 22 -6 22 -6 2 -27 -10 -11 -19 -31 -19 -44 0 -16 -6 -23 -19 -23 -11 0
-23 5 -26 10 -5 8 -11 7 -21 -1 -21 -17 -195 5 -211 28 -34 46 13 134 51 96z
m1021 -67 c31 -8 49 -40 36 -63 -7 -14 -3 -21 22 -36 38 -23 27 -32 -54 -41
l-57 -7 -14 93 c-17 113 -14 131 18 90 13 -16 35 -33 49 -36z m-551 -35 c-17
-13 -19 -22 -12 -35 13 -24 6 -28 -26 -16 -33 12 -46 6 -46 -23 0 -12 -7 -44
-14 -72 l-14 -50 -1 67 c-1 37 3 78 9 93 11 28 59 54 100 54 l25 0 -21 -18z
m717 -37 c10 -13 10 -17 -2 -25 -20 -13 -34 -6 -37 19 -4 26 19 30 39 6z m160
-60 c82 -19 85 -25 75 -147 -6 -73 -17 -107 -35 -107 -3 0 -5 44 -3 97 4 114
-8 136 -77 148 -23 4 -41 11 -41 16 0 12 -1 12 81 -7z m-731 -23 c0 -6 -4 -13
-10 -16 -5 -3 -10 1 -10 9 0 9 5 16 10 16 6 0 10 -4 10 -9z m-122 -35 c25 -25
4 -44 -46 -41 -52 2 -65 20 -36 50 18 18 59 14 82 -9z m734 2 c6 -17 -1 -38
-13 -38 -5 0 -9 11 -9 25 0 26 14 34 22 13z m-278 -99 c-8 -14 -24 -10 -24 6
0 9 6 12 15 9 8 -4 12 -10 9 -15z m-210 -11 c33 -47 13 -74 -32 -42 -13 9 -31
13 -42 9 -28 -9 -26 19 2 39 31 22 54 20 72 -6z m556 -13 c13 -16 6 -35 -15
-35 -8 0 -23 -10 -34 -21 -24 -26 -51 -19 -51 12 0 49 70 80 100 44z"/>
		<path d="M1462 1998 c-16 -16 -15 -33 2 -47 11 -9 17 -6 30 14 24 37 -1 64
-32 33z"/>
		<path d="M1350 1859 c0 -14 5 -19 17 -17 26 5 29 38 4 38 -15 0 -21 -6 -21
-21z"/>
		<path d="M1997 1374 c6 -17 44 -15 51 4 2 8 -7 12 -27 12 -23 0 -29 -4 -24
-16z"/>
		<path d="M2351 1217 c-16 -16 -14 -32 8 -51 26 -24 61 -13 61 19 0 28 -50 51
-69 32z"/>
		<path d="M2260 1001 c0 -11 5 -23 11 -27 14 -8 29 14 22 33 -8 20 -33 16 -33
-6z"/>
		<path d="M2515 940 c-8 -13 3 -30 21 -30 18 0 18 14 0 29 -10 8 -16 9 -21 1z"/>
	</g>
</svg>
